<svg width="26" height="26" viewBox="0 0 26 26" fill="none" xmlns="http://www.w3.org/2000/svg">
<path opacity="0.2" d="M13 26C20.1797 26 26 20.1797 26 13C26 5.8203 20.1797 0 13 0C5.8203 0 0 5.8203 0 13C0 20.1797 5.8203 26 13 26Z" fill="#32A4BE"/>
<path opacity="0.2" d="M13 26C20.1797 26 26 20.1797 26 13C26 5.8203 20.1797 0 13 0C5.8203 0 0 5.8203 0 13C0 20.1797 5.8203 26 13 26Z" fill="#C2A633"/>
<mask id="mask0_17_6595" style="mask-type:alpha" maskUnits="userSpaceOnUse" x="0" y="0" width="26" height="26">
<path d="M13 26C20.1797 26 26 20.1797 26 13C26 5.8203 20.1797 0 13 0C5.8203 0 0 5.8203 0 13C0 20.1797 5.8203 26 13 26Z" fill="white"/>
</mask>
<g mask="url(#mask0_17_6595)">
<path d="M13.6552 13.3274H17.4334C17.514 13.3274 17.552 13.3274 17.5578 13.2032C17.5887 12.7513 17.5887 12.2968 17.5578 11.8443C17.5578 11.7565 17.5207 11.7202 17.4397 11.7202H9.92045C9.82738 11.7202 9.80232 11.7565 9.80232 11.8591V13.1595C9.80232 13.3274 9.80232 13.3274 9.95132 13.3274H13.6552ZM17.1359 10.2003C17.1466 10.1672 17.1466 10.1308 17.1359 10.0982C17.0728 9.93672 16.9981 9.78258 16.9113 9.6379C16.7806 9.39064 16.6267 9.16285 16.4513 8.9582C16.3685 8.83457 16.2728 8.72356 16.1654 8.62939C15.6276 8.0912 14.9882 7.71032 14.3009 7.51882C13.9541 7.42728 13.5998 7.38361 13.2445 7.3873H9.90747C9.8144 7.3873 9.80188 7.43096 9.80188 7.52618V10.1198C9.80188 10.2292 9.80188 10.2587 9.92 10.2587H17.0911C17.0911 10.2587 17.1533 10.244 17.1659 10.2003H17.1359ZM17.1359 14.8472C17.0303 14.8336 16.9238 14.8336 16.8182 14.8472H9.92671C9.83364 14.8472 9.80232 14.8472 9.80232 14.9935V17.5292C9.80232 17.646 9.80232 17.6755 9.92671 17.6755H13.1085C13.2606 17.6892 13.4127 17.6765 13.5617 17.6392C14.0235 17.6003 14.4776 17.4824 14.9108 17.2883C15.0683 17.2241 15.2204 17.1405 15.364 17.04H15.4074C16.1533 16.5839 16.7591 15.8673 17.1413 14.9877C17.1413 14.9877 17.1847 14.8772 17.1359 14.8483V14.8472ZM8.55352 18.9902V18.9465V17.2441V16.667V14.9498C8.55352 14.8546 8.55352 14.8404 8.45418 14.8404H7.1056C7.03087 14.8404 7 14.8404 7 14.7236V13.3353H8.44165C8.52219 13.3353 8.55352 13.3353 8.55352 13.2111V11.8375C8.55352 11.7496 8.55352 11.7281 8.45418 11.7281H7.1056C7.03087 11.7281 7 11.7281 7 11.6113V10.3255C7 10.245 7 10.2234 7.09933 10.2234H8.43539C8.52846 10.2234 8.55352 10.2234 8.55352 10.0846V6.14625C8.55352 6.02946 8.55352 6 8.6779 6H13.3384C13.6767 6.01578 14.0127 6.05945 14.3452 6.13152C15.0302 6.28041 15.6884 6.56818 16.2902 6.97905C16.6893 7.25525 17.0567 7.58879 17.3838 7.97283C17.6299 8.27323 17.8518 8.59835 18.0487 8.94452C18.2442 9.29542 18.4066 9.67052 18.5341 10.0625C18.5498 10.1645 18.633 10.2334 18.7198 10.2161H19.8322C19.9749 10.2161 19.9749 10.2161 19.9812 10.3771V11.5755C19.9812 11.6923 19.944 11.7217 19.8442 11.7217H18.9865C18.8997 11.7217 18.8746 11.7217 18.8809 11.8533C18.9149 12.2983 18.9149 12.745 18.8809 13.1901C18.8809 13.3142 18.8809 13.3289 18.9995 13.3289H19.9807C20.0241 13.3947 19.9807 13.4605 19.9807 13.5268C19.987 13.6115 19.987 13.6972 19.9807 13.7819V14.6663C19.9807 14.7904 19.9498 14.8272 19.8563 14.8272H18.6818C18.5999 14.8088 18.5203 14.8704 18.5015 14.9661C18.2218 15.821 17.7744 16.5875 17.1963 17.202C16.9851 17.4256 16.7632 17.636 16.5314 17.8302C16.2826 17.9985 16.0405 18.1737 15.7855 18.3126C15.3161 18.5609 14.824 18.744 14.3188 18.8602C13.8391 18.9613 13.3528 19.007 12.8646 18.9991H8.55173V18.9918L8.55352 18.9902Z" fill="#C2A633"/>
</g>
</svg>
