<svg width="26" height="26" viewBox="0 0 26 26" fill="none" xmlns="http://www.w3.org/2000/svg">
<path opacity="0.2" d="M13 26C20.1797 26 26 20.1797 26 13C26 5.8203 20.1797 0 13 0C5.8203 0 0 5.8203 0 13C0 20.1797 5.8203 26 13 26Z" fill="#1C9EF8"/>
<path d="M16 14.1203C16 12.5228 15.0597 11.9751 13.1791 11.7469C11.8358 11.5643 11.5671 11.1992 11.5671 10.5602C11.5671 9.92108 12.0149 9.5104 12.9104 9.5104C13.7164 9.5104 14.1642 9.78426 14.3881 10.4689C14.4329 10.6058 14.5672 10.6971 14.7015 10.6971H15.4179C15.597 10.6971 15.7313 10.5602 15.7313 10.3777V10.332C15.5522 9.32779 14.7462 8.5519 13.7164 8.46065V7.36522C13.7164 7.18261 13.5821 7.04568 13.3582 7H12.6866C12.5074 7 12.3731 7.13693 12.3283 7.36522V8.41497C10.985 8.59758 10.1343 9.5104 10.1343 10.6515C10.1343 12.1577 11.0298 12.751 12.9104 12.9793C14.1642 13.2075 14.5672 13.4813 14.5672 14.2117C14.5672 14.942 13.9403 15.444 13.0896 15.444C11.9253 15.444 11.5223 14.9419 11.388 14.2572C11.3433 14.0747 11.209 13.9834 11.0746 13.9834H10.3134C10.1343 13.9834 10 14.1203 10 14.3029V14.3486C10.179 15.4896 10.8955 16.3112 12.3731 16.5395V17.6349C12.3731 17.8174 12.5074 17.9543 12.7313 18H13.4029C13.5821 18 13.7164 17.8631 13.7612 17.6349V16.5395C15.1045 16.3112 16 15.3527 16 14.1203V14.1203Z" fill="#8FCAF3"/>
<path d="M11.1929 18.0983C8.16773 17.0463 6.61635 13.7775 7.74114 10.8844C8.3229 9.30631 9.60276 8.10403 11.1929 7.54044C11.348 7.46532 11.4256 7.35261 11.4256 7.16469V6.6387C11.4256 6.48838 11.348 6.37566 11.1929 6.33815C11.154 6.33815 11.0765 6.33815 11.0377 6.37566C7.35327 7.50284 5.33649 11.2977 6.5 14.8671C7.19811 16.9711 8.86584 18.5867 11.0377 19.263C11.1929 19.3382 11.348 19.263 11.3867 19.1127C11.4256 19.0752 11.4256 19.0376 11.4256 18.9625V18.4364C11.4256 18.3237 11.3092 18.1735 11.1929 18.0983ZM15.304 6.37566C15.1488 6.30055 14.9936 6.37566 14.9549 6.52598C14.9161 6.56359 14.9161 6.6011 14.9161 6.6763V7.20229C14.9161 7.35261 15.0324 7.50284 15.1488 7.57804C18.1739 8.63001 19.7253 11.8988 18.6005 14.7919C18.0188 16.37 16.7389 17.5723 15.1488 18.1359C14.9936 18.211 14.9161 18.3237 14.9161 18.5116V19.0376C14.9161 19.1879 14.9936 19.3006 15.1488 19.3382C15.1876 19.3382 15.2651 19.3382 15.304 19.3006C18.9884 18.1735 21.0052 14.3786 19.8417 10.8092C19.1435 8.66761 17.437 7.05197 15.304 6.37566Z" fill="#8FCAF3"/>
</svg>
