<svg width="26" height="26" viewBox="0 0 26 26" fill="none" xmlns="http://www.w3.org/2000/svg">
<path opacity="0.2" d="M25.9295 13.0002C25.9295 20.1421 20.14 25.9318 12.9982 25.9318C5.85625 25.9318 0.0666504 20.1421 0.0666504 13.0002C0.0666504 5.85838 5.85625 0.0687866 12.9982 0.0687866C20.1399 0.0687866 25.9295 5.85838 25.9295 13.0002" fill="#00A478"/>
<path d="M11.6721 12.7738V10.5115H8.60376V8.5285H17.178V10.5394H14.1096V12.7738H11.6721Z" fill="#00A478"/>
<path fill-rule="evenodd" clip-rule="evenodd" d="M7.28467 13.0252C7.28467 12.2711 9.75084 11.6566 12.8192 11.6566C15.8876 11.6566 18.3538 12.2711 18.3538 13.0252C18.3538 13.7793 15.8876 14.3937 12.8192 14.3937C9.75084 14.3937 7.28467 13.7793 7.28467 13.0252ZM17.895 13.0252C17.6942 12.7459 16.031 11.8801 12.8192 11.8801C9.60746 11.8801 7.94423 12.7179 7.74349 13.0252C7.94423 13.3045 9.60746 13.7234 12.8192 13.7234C16.0597 13.7234 17.6942 13.3045 17.895 13.0252Z" fill="#00A478"/>
<path d="M14.1095 13.472V11.908C13.708 11.88 13.2779 11.8521 12.8477 11.8521C12.4463 11.8521 12.0735 11.8521 11.7007 11.88V13.4441C12.0448 13.4441 12.4463 13.472 12.8477 13.472C13.2779 13.5 13.708 13.5 14.1095 13.472Z" fill="#00A478"/>
<path d="M12.8192 14.3937C12.4177 14.3937 12.0449 14.3937 11.6721 14.3658V18.5273H14.0809V14.3378C13.6795 14.3658 13.2493 14.3937 12.8192 14.3937Z" fill="#00A478"/>
</svg>
